# xmcd
#
# Track frame offsets:
#	150
#	21290
#	41122
#	61615
#	86197
#	116572
#	138000
#	158707
#	176935
#	198217
#	217775
#	239762
#	260950
#	279877
#	305075
#	323820
#
# Disc length: 4554
#
# Revision: 2
# Processed by: cddbd v1.5.1PL0 Copyright (c) Steve Scherf et al.
# Submitted via: dBpowerAMP V4.0
# Normalized: r0:TSWAP
#
DISCID=e711c810
DTITLE=Various Artist - One Night Without You: The Best Of Love
DYEAR=1900
DGENRE=R&B
TTITLE0=Luther Vandross - When You Call On Me/ Baby That's When I Come Runnin'
TTITLE1=Luther Vandross - One Night With You (Everyday Of Your Life)
TTITLE2=Luther Vandross - I Won't Let You Do That To Me
TTITLE3=Luther Vandross - It's All About You
TTITLE4=Luther Vandross - The Rush
TTITLE5=Luther Vandross - I Gave It Up (When I Fell In Love)
TTITLE6=Luther Vandross - Don't Want To Be A Fool
TTITLE7=Luther Vandross and Janet Jackson with BBD and Ralph Tresvant - The Best Things In Life Are Free (Classic Club Edit)
TTITLE8=Luther Vandross - Little Miracles(Happen Every Day)
TTITLE9=Luther Vandross with Mariah Carey - Endless Love
TTITLE10=Luther Vandross - Always And Forever
TTITLE11=Luther Vandross - Hello
TTITLE12=Luther Vandross - Your Secret Love
TTITLE13=Luther Vandross - I Can Make It Better
TTITLE14=Luther Vandross - Love Don't Love You Anymore (TM's Urban Mix)
TTITLE15=Luther Vandross - Heaven Knows (Classic Radio Mix)
EXTD=
EXTT0=
EXTT1=
EXTT2=
EXTT3=
EXTT4=
EXTT5=
EXTT6=
EXTT7=
EXTT8=
EXTT9=
EXTT10=
EXTT11=
EXTT12=
EXTT13=
EXTT14=
EXTT15=
PLAYORDER=
